<?xml version="1.0" encoding="utf-8"?>
<!-- Generator: Adobe Illustrator 23.0.4, SVG Export Plug-In . SVG Version: 6.00 Build 0)  -->
<svg version="1.1" id="Capa_1" xmlns="http://www.w3.org/2000/svg" xmlns:xlink="http://www.w3.org/1999/xlink" x="0px" y="0px"
	 viewBox="0 0 595.3 841.9" style="enable-background:new 0 0 595.3 841.9;" xml:space="preserve">
<style type="text/css">
	.st0{fill:#183860;}
</style>
<g>
	<path class="st0" d="M341,438.3c0-24.1-19.5-43.6-43.6-43.6c-24.1,0-43.6,19.5-43.6,43.6c0,24.1,19.5,43.6,43.6,43.6
		C321.5,481.9,341,462.4,341,438.3 M297.5,473.1c-19.2,0-34.8-15.6-34.8-34.8c0-19.2,15.6-34.8,34.8-34.8
		c19.2,0,34.8,15.6,34.8,34.8C332.2,457.5,316.7,473.1,297.5,473.1"/>
	<path class="st0" d="M249.9,460.2h-70.1c-5.7,0-5.7,8.7,0,8.7H255C253,466.2,251.3,463.3,249.9,460.2"/>
	<path class="st0" d="M254.9,407.9H127.6c-5.7,0-5.7,8.7-0.1,8.7h122.4C251.3,413.5,253,410.6,254.9,407.9"/>
	<path class="st0" d="M246.8,425.3H145c-5.7,0-5.7,8.7,0,8.7h100.4C245.6,431.1,246.1,428.1,246.8,425.3"/>
	<path class="st0" d="M245.3,442.8h-83c-5.7,0-5.7,8.7,0,8.7h84.4C246.1,448.7,245.6,445.7,245.3,442.8"/>
	<path class="st0" d="M345.1,460.2h70.1c5.7,0,5.7,8.7,0,8.7H340C342,466.2,343.7,463.3,345.1,460.2"/>
	<path class="st0" d="M340.1,407.9h127.3c5.7,0,5.7,8.7,0.1,8.7H345.2C343.8,413.5,342.1,410.6,340.1,407.9"/>
	<path class="st0" d="M348.2,425.3H450c5.7,0,5.7,8.7,0,8.7H349.7C349.5,431.1,349,428.1,348.2,425.3"/>
	<path class="st0" d="M349.7,442.8h83c5.7,0,5.7,8.7,0,8.7h-84.4C348.9,448.7,349.4,445.7,349.7,442.8"/>
	<path class="st0" d="M341,479.5c0-2.4-2-4.4-4.4-4.4c-1.2,0-2.4,0.5-3.2,1.3c-4.7,4.4-10.2,7.9-16.2,10.4
		c-6.1,2.5-12.7,3.8-19.7,3.8c-7,0-13.7-1.4-19.7-3.8c-6-2.4-11.5-6-16.2-10.4c-0.8-0.9-1.9-1.4-3.2-1.4c-2.4,0-4.4,2-4.4,4.4
		c0,1.4,0.7,2.7,1.8,3.5c5.4,5,11.7,9.1,18.6,11.9c7.2,2.9,15,4.5,23.2,4.5c8.2,0,15.9-1.6,23.1-4.5c7-2.8,13.3-6.9,18.7-11.9
		C340.3,482.1,341,480.9,341,479.5"/>
	<path class="st0" d="M330.1,386.9c-2.7-1.7-5.4-3.1-8.3-4.4c3.1-4.3,4.7-9.6,3.8-14.8c4.7,1.5,8.1,5.8,8.1,10.9
		C333.8,381.8,332.4,384.8,330.1,386.9 M317.1,371.6c-0.1,1.5-0.7,3.2-1.5,4.5c-1,1.7-1.1,1.8-2.6,3.2c0,0-0.1,0.1-0.2,0.1
		c-3.7-0.9-7.3-1.6-11.1-1.9v-15.6v-4.1c0.2,0,0.6,0.1,0.6,0.1c0.5,0.1,1,0.2,1.4,0.3c4.6,1,8.8,3,11.3,7
		C316.5,367.1,317.3,369.3,317.1,371.6 M293,361.9v15.6c-3.8,0.2-7.4,0.9-11.1,1.9c0,0-0.1-0.1-0.2-0.1c-1.4-1.4-1.5-1.5-2.6-3.2
		c-0.8-1.4-1.4-3-1.5-4.5c-0.1-2.3,0.6-4.4,1.9-6.4c2.6-4,6.7-6,11.3-7c0.5-0.1,1-0.2,1.4-0.3c0.1,0,0.4-0.1,0.6-0.1V361.9z
		 M264.8,386.9c-2.2-2.1-3.7-5.1-3.7-8.3c0-5.1,3.4-9.4,8.1-10.9c-0.9,5.2,0.7,10.5,3.8,14.8C270.2,383.8,267.4,385.2,264.8,386.9
		 M322.6,360.2c-4.5-6.7-12.6-10.5-20.8-11.2v-2.3c0-2.8-2.2-4.2-4.4-4.2h0h0c-2.2,0-4.4,1.4-4.4,4.2v2.3
		c-8.2,0.7-16.3,4.5-20.8,11.2c-10.2,0.3-18.4,8.5-18.4,18.4c0,6.7,3.8,12.9,9.8,16.1c1.2,0.9,2.9,1.2,4.6,0.1
		c8.9-5.7,18.8-8.8,29.1-8.7c10.3-0.1,20.2,3,29.1,8.7c1.7,1.1,3.4,0.9,4.6-0.1c6-3.3,9.8-9.4,9.8-16.1
		C341,368.7,332.8,360.5,322.6,360.2"/>
</g>
</svg>
